{"title":"Twilight Saga New Moon[2009]DvDrip MXMG","uid":5412309,"size":734955367,"categoryP":"video","categoryS":"movies","magnet":"?xt=urn:btih:6a9b8ccd2c7c286bf779f41cdec739fc22aa258c&amp;dn=Twilight+Saga+New+Moon%5B2009%5DDvDrip+MXMG&amp;tr=udp%3A%2F%2Ftracker.openbittorrent.com%3A80&amp;tr=udp%3A%2F%2Fopen.demonii.com%3A1337&amp;tr=udp%3A%2F%2Ftracker.coppersurfer.tk%3A6969&amp;tr=udp%3A%2F%2Fexodus.desync.com%3A6969","seeders":1,"leechers":0,"uploader":"DragonMF","files":4,"time":1267749160,"description":"General\nComplete name                    : Twilight New Moon[2009]DvDrip MXMG\nFormat                           : AVI\nFormat/Info                      : Audio Video Interleave\nFile size                        : 700 MiB\nDuration                         : 2h 10mn\nOverall bit rate                 : 750 Kbps\nWriting application              : VirtualDubMod 1.5.10.2 (build 2540/release)\nWriting library                  : VirtualDubMod build 2540/release\n\nVideo\nFormat                           : MPEG-4 Visual\nFormat profile                   : Advanced Simple@L5\nFormat settings, BVOP            : Yes\nFormat settings, QPel            : No\nFormat settings, GMC             : No warppoints\nFormat settings, Matrix          : Default (H.263)\nMuxing mode                      : Packed bitstream\nCodec ID                         : XVID\nCodec ID/Hint                    : XviD\nDuration                         : 2h 10mn\nBit rate                         : 584 Kbps\nWidth                            : 640 pixels\nHeight                           : 272 pixels\nDisplay aspect ratio             : 2.35:1\nFrame rate                       : 23.976 fps\nResolution                       : 8 bits\nColorimetry                      : 4:2:0\nScan type                        : Progressive\nBits/(Pixel*Frame)               : 0.140\nStream size                      : 545 MiB (78%)\nWriting library                  : XviD 1.3.0.dev55\n\nAudio\nID                               : 1\nFormat                           : MPEG Audio\nFormat version                   : Version 1\nFormat profile                   : Layer 3\nMode                             : Joint stereo\nFormat_Settings_ModeExtension    : MS Stereo\nCodec ID                         : 55\nCodec ID/Hint                    : MP3\nDuration                         : 2h 10mn\nBit rate mode                    : Variable\nBit rate                         : 153 Kbps\nMinimum bit rate                 : 32.0 Kbps\nChannel(s)                       : 2 channels\nSampling rate                    : 48.0 KHz\nStream size                      : 143 MiB (20%)\nAlignment                        : Aligned on interleaves\nInterleave, duration             : 24 ms (0.58 video frame)\nInterleave, preload duration     : 120 ms\nWriting library                  : LAME3.98b\nEncoding settings                : -m j -V 3 -q 0 -lowpass 18 --vbr-new -b 32\n\n\nScreens:http://img69.imageshack.us/img69/131/screenspl.jpg\n\n\n\nDownload and Seed!\nThe Best rip available at present!","torrent":{"xt":"urn:btih:6a9b8ccd2c7c286bf779f41cdec739fc22aa258c","amp;dn":"Twilight+Saga+New+Moon%5B2009%5DDvDrip+MXMG","amp;tr":["udp%3A%2F%2Ftracker.openbittorrent.com%3A80","udp%3A%2F%2Fopen.demonii.com%3A1337","udp%3A%2F%2Ftracker.coppersurfer.tk%3A6969","udp%3A%2F%2Fexodus.desync.com%3A6969"],"infoHash":"6a9b8ccd2c7c286bf779f41cdec739fc22aa258c","infoHashBuffer":{"type":"Buffer","data":[106,155,140,205,44,124,40,107,247,121,244,28,222,199,57,252,34,170,37,140]},"announce":[],"urlList":[]}}